<svg width="41" height="46" viewBox="0 0 41 46" fill="none" xmlns="http://www.w3.org/2000/svg">
<path d="M25.8636 2.21802L21.8604 1.03564L18.4868 14.9137L15.441 2.3845L11.4377 3.56688L14.7284 17.1037L6.53201 8.06913L3.6014 11.2994L12.5919 21.2094L1.39567 17.9026L0.322998 22.3152L12.5562 25.9283C12.4162 25.2625 12.3421 24.5686 12.3421 23.8558C12.3421 18.8097 16.0532 14.719 20.6311 14.719C25.209 14.719 28.9201 18.8097 28.9201 23.8558C28.9201 24.564 28.8469 25.2536 28.7086 25.9156L39.8264 29.1992L40.899 24.7865L28.6171 21.159L39.814 17.852L38.7413 13.4393L26.46 17.0666L34.6564 8.03204L31.7257 4.80173L22.86 14.5742L25.8636 2.21802Z" fill="#F97316"/>
<path d="M28.6978 25.9668C28.3546 27.5663 27.63 29.0031 26.6357 30.1544L34.69 39.0325L37.6207 35.8022L28.6978 25.9668Z" fill="#F97316"/>
<path d="M26.5542 30.2473C25.548 31.3801 24.2764 32.2255 22.8503 32.6612L25.7812 44.7177L29.7844 43.5353L26.5542 30.2473Z" fill="#F97316"/>
<path d="M22.7009 32.7053C22.0393 32.8928 21.3458 32.9924 20.6312 32.9924C19.8655 32.9924 19.1241 32.878 18.4203 32.6638L15.4868 44.7313L19.49 45.9136L22.7009 32.7053Z" fill="#F97316"/>
<path d="M18.2787 32.6192C16.8745 32.1619 15.6255 31.3058 14.6398 30.1697L6.56567 39.0696L9.49628 42.2999L18.2787 32.6192Z" fill="#F97316"/>
<path d="M14.5724 30.0911C13.6036 28.9478 12.8979 27.5301 12.562 25.9553L1.40796 29.2497L2.48063 33.6623L14.5724 30.0911Z" fill="#F97316"/>
</svg>
